Coordinates
version=1
nRows=9
nColumns=24
inDegrees=yes

Units are S.I. units (second, meters, Newtons, ...)
If the header above contains a line with 'inDegrees', this indicates whether rotational values are in degrees (yes) or radians (no).

endheader
time	pelvis_tilt	pelvis_list	pelvis_rotation	pelvis_tx	pelvis_ty	pelvis_tz	hip_flexion_r	hip_adduction_r	hip_rotation_r	knee_angle_r	ankle_angle_r	subtalar_angle_r	mtp_angle_r	hip_flexion_l	hip_adduction_l	hip_rotation_l	knee_angle_l	ankle_angle_l	subtalar_angle_l	mtp_angle_l	lumbar_extension	lumbar_bending	lumbar_rotation
      2.00000000	      0.51809839	      2.49571452	      5.29186677	      0.61101113	      1.00389115	      0.00580187	     24.03266655	     -4.79708243	     -2.43506333	    -24.43283932	      0.23802789	     -0.00000199	      0.00000000	     -7.88183713	      2.59647286	      6.26262781	    -40.97051645	      0.49269009	      0.00000891	      0.00000000	    -13.32425790	      1.68020915	    -10.96385992
      2.01700000	      0.43095451	      1.89570332	      5.07060986	      0.61182037	      1.00511037	      0.00912955	     23.25856392	     -3.86038912	     -2.58398070	    -25.12032911	      1.30472382	     -0.00000176	      0.00000000	     -4.35571932	      1.53764423	      4.49547784	    -47.34672105	     -4.26305155	      0.00000899	      0.00000000	    -13.16698445	      2.37116028	    -10.10316748
      2.03300000	      0.39632770	      1.15860941	      5.15859052	      0.61289235	      1.00705391	      0.01247302	     22.05187024	     -2.83434225	     -3.07843952	    -25.18429523	      2.44828771	     -0.00000159	      0.00000000	     -0.97315874	      0.05315588	      3.04906481	    -52.89838385	     -8.44406438	      0.00000811	      0.00000000	    -12.88561198	      3.06650165	     -9.60976830
      2.05000000	      0.47199944	      0.52274216	      4.92140246	      0.61291240	      1.00956803	      0.01604491	     20.59690258	     -1.77816773	     -3.25793649	    -24.76210951	      3.41152093	     -0.00000142	      0.00000000	      2.18109936	     -1.32110525	      1.65936332	    -57.72948206	    -10.85495831	      0.00000633	      0.00000000	    -12.96831854	      3.59413171	     -8.70082506
      2.06700000	      0.74588432	      0.02731246	      4.83283666	      0.61283605	      1.01276827	      0.01945536	     18.83502542	     -0.87689088	     -3.40060053	    -24.18758875	      4.34766486	     -0.00000153	      0.00000000	      5.05426337	     -2.47679607	      0.81099832	    -61.95789348	    -11.10979880	      0.00000445	      0.00000000	    -13.21522966	      3.85867630	     -8.05709729
      2.08300000	      0.83191726	     -0.13049689	      4.53882076	      0.61226108	      1.01623159	      0.02229485	     17.09772690	     -0.34423235	     -3.23965955	    -23.19371692	      5.02979271	     -0.00000139	      0.00000000	      7.90885219	     -3.06618368	      0.02986511	    -65.30508186	     -9.62815322	      0.00000263	      0.00000000	    -13.41386288	      3.79752805	     -7.08453482
      2.10000000	      0.96485203	     -0.20901504	      4.29516048	      0.61209362	      1.02002969	      0.02506275	     15.12225641	      0.08770924	     -3.09047324	    -21.88831541	      5.53456042	     -0.00000116	      0.00000000	     10.51914990	     -3.37365192	     -0.38125999	    -67.73225074	     -7.36584266	      0.00000113	      0.00000000	    -13.56641968	      3.57671261	     -6.35468475
      2.11700000	      1.28388390	     -0.13413312	      3.81300716	      0.61140377	      1.02417824	      0.02810351	     12.74947889	      0.41387144	     -2.66029952	    -20.05529455	      5.72655689	     -0.00000093	      0.00000000	     12.72935694	     -3.51351482	     -0.98575731	    -69.16439794	     -5.28817200	      0.00000051	      0.00000000	    -13.85615674	      3.14519559	     -5.30203385
      2.13300000	      1.38022057	     -0.03488239	      3.41324423	      0.61044581	      1.02755206	      0.03071972	     10.68221418	      0.62362005	     -2.28366857	    -18.34318209	      5.92547709	     -0.00000082	      0.00000000	     15.03325199	     -3.36033402	     -1.19952458	    -69.75212498	     -3.63610138	      0.00000005	      0.00000000	    -14.05153176	      2.68691324	     -4.54200884
